<?xml version="1.0" encoding="UTF-8" standalone="no"?><!DOCTYPE svg PUBLIC "-//W3C//DTD SVG 1.1//EN" "http://www.w3.org/Graphics/SVG/1.1/DTD/svg11.dtd"><svg width="100%" height="100%" viewBox="0 0 80 77" version="1.1" xmlns="http://www.w3.org/2000/svg" xmlns:xlink="http://www.w3.org/1999/xlink" xml:space="preserve" xmlns:serif="http://www.serif.com/" style="fill-rule:evenodd;clip-rule:evenodd;stroke-linejoin:round;stroke-miterlimit:1.41421;"><path d="M27.639,0c-5.331,1.732 -10.238,4.566 -14.404,8.316l7.673,12.077c-2.629,2.845 -4.59,6.24 -5.739,9.939l-14.295,-0.606c-1.165,5.483 -1.165,11.15 0,16.633l14.295,-0.607c1.149,3.699 3.11,7.095 5.739,9.939l-7.673,12.077c4.166,3.751 9.073,6.584 14.404,8.317l6.623,-12.684c3.778,0.855 7.698,0.855 11.476,0l6.623,12.684c5.331,-1.733 10.238,-4.566 14.404,-8.317l-7.673,-12.077c2.629,-2.844 4.59,-6.24 5.739,-9.939l14.295,0.607c1.165,-5.483 1.165,-11.15 0,-16.633l-14.295,0.606c-1.149,-3.699 -3.11,-7.094 -5.739,-9.939l7.673,-12.077c-4.166,-3.75 -9.073,-6.584 -14.404,-8.316l-6.623,12.683c-3.778,-0.854 -7.698,-0.854 -11.476,0l-6.623,-12.683Zm5.961,26.957c6.118,-3.532 13.953,-1.433 17.485,4.685c3.532,6.118 1.433,13.953 -4.685,17.485c-6.118,3.533 -13.953,1.433 -17.485,-4.685c-3.532,-6.118 -1.433,-13.953 4.685,-17.485Z" style="fill:#575555;"/></svg>