<?xml version="1.0" encoding="UTF-8" standalone="no"?><!DOCTYPE svg PUBLIC "-//W3C//DTD SVG 1.1//EN" "http://www.w3.org/Graphics/SVG/1.1/DTD/svg11.dtd"><svg width="100%" height="100%" viewBox="0 0 102 99" version="1.1" xmlns="http://www.w3.org/2000/svg" xmlns:xlink="http://www.w3.org/1999/xlink" xml:space="preserve" xmlns:serif="http://www.serif.com/" style="fill-rule:evenodd;clip-rule:evenodd;stroke-linejoin:round;stroke-miterlimit:1.41421;"><path d="M46.046,26.242l0,-14.754l-10.342,-10.948l12.694,5.19l2.6,-5.73l2.928,5.848l12.366,-3.992l-11.012,10.034l0,14.788l8.129,-7.515l-0.874,11.967l7.145,-3.343l12.875,-7.434l3.145,-11.072l3.945,13.16l11.923,10.776l-13.66,-3.593l-15.653,9.038l7.633,1.165l-9.901,6.777l16.911,8.377l-11.899,0.133l10.661,6.054l14.799,-2.935l-13.062,10.119l-3.372,15.714l-3.718,-13.626l-11.151,-6.333l-6.621,-2.029l3.994,18.445l-11.249,-13.788l0,15.889l11.012,13.652l-11.383,-4.899l-3.911,6.952l-4.024,-7.12l-11.27,4.244l10.342,-13.231l0,-15.673l-0.256,-0.649l-11.93,14.623l3.994,-18.445l-11.472,3.516l0.385,-0.67l-5.333,3.079l-10.279,13.08l1.48,-14.181l-12.635,-10.365l16.081,2.195l6.324,-3.651l-8.914,-0.1l16.911,-8.377l-9.901,-6.777l4.651,-0.71l-6.768,-3.844l-16.794,1.784l13.347,-9.954l2.659,-16.125l5.394,13.196l14.864,6.956l-0.874,-11.967l8.81,8.145l0.256,-1.066Z" style="fill:#b4ad5d;"/></svg>